<svg width="38" height="105" viewBox="0 0 38 105" fill="none" xmlns="http://www.w3.org/2000/svg">
<mask id="path-1-outside-1_107_3" maskUnits="userSpaceOnUse" x="0" y="0" width="38" height="105" fill="black">
<rect fill="white" width="38" height="105"/>
<path d="M35 22.3225V102H3.00002V22.3225H35Z"/>
<path d="M3 3H35L35 22.3225H3.00002L3 3Z"/>
</mask>
<path d="M35 22.3225V102H3.00002V22.3225H35Z" fill="#FABB00"/>
<path d="M3 3H35L35 22.3225H3.00002L3 3Z" fill="#BABFCA"/>
<path d="M3.00002 20.8225C2.1716 20.8225 1.50002 21.4941 1.50002 22.3225C1.50002 23.1509 2.1716 23.8225 3.00002 23.8225V20.8225ZM35 23.8225C35.8284 23.8225 36.5 23.1509 36.5 22.3225C36.5 21.4941 35.8284 20.8225 35 20.8225V23.8225ZM3.00002 23.8225H35V20.8225H3.00002V23.8225ZM3.00002 102H2.28882e-05C2.28882e-05 103.657 1.34317 105 3.00002 105V102ZM35 102V105C36.6569 105 38 103.657 38 102H35ZM3.00002 22.3225H6.00002V22.3225L3.00002 22.3225ZM35 22.3225H38V22.3225L35 22.3225ZM3 3V0H-3.57628e-06L0 3L3 3ZM35 3L38 3L38 0H35V3ZM3.00002 105H35V99H3.00002V105ZM2.28882e-05 22.3225V102H6.00002V22.3225H2.28882e-05ZM32 22.3225V102H38V22.3225H32ZM3 6H35V0H3V6ZM32 3L32 22.3225L38 22.3225L38 3L32 3ZM6.00002 22.3225L6 3L0 3L2.28882e-05 22.3225L6.00002 22.3225Z" fill="#667085" mask="url(#path-1-outside-1_107_3)"/>
</svg>
