<svg width="57" height="106" viewBox="0 0 57 106" fill="none" xmlns="http://www.w3.org/2000/svg">
<path d="M21.6377 1.5C21.2361 1.5 20.8512 1.66107 20.5693 1.94715C20.2874 2.23322 20.132 2.62041 20.1379 3.022L20.3356 16.5011C16.9292 16.9594 14.3345 18.9471 12.41 21.5764C10.2383 24.5433 8.84406 28.4115 7.93383 32.1421C7.01829 35.8944 6.56422 39.6281 6.33786 42.4113C6.22441 43.8062 6.16757 44.97 6.13906 45.7878C6.12481 46.1968 6.11763 46.5197 6.11401 46.7422C6.1122 46.8534 6.11128 46.9396 6.11081 46.9989L6.11057 47.0379L2.15377 102.894C2.12436 103.309 2.26879 103.718 2.55253 104.022C2.83626 104.327 3.23379 104.5 3.65002 104.5H53.65C54.0734 104.5 54.477 104.321 54.7613 104.007C55.0456 103.694 55.1842 103.275 55.1428 102.853L49.6576 46.9946L49.6561 46.9534C49.6539 46.8946 49.6504 46.8089 49.6453 46.6981C49.6352 46.4766 49.6188 46.1547 49.5933 45.7468C49.5425 44.9311 49.4557 43.77 49.3113 42.3781C49.023 39.6001 48.5024 35.876 47.5711 32.1353C46.6453 28.4167 45.2864 24.5674 43.2654 21.615C41.5045 19.0428 39.1368 17.0171 36.034 16.5188V3C36.034 2.17157 35.3625 1.5 34.534 1.5H34.3155H21.8563H21.6377Z" fill="#4DDB00" stroke="#667085" stroke-width="3" stroke-linecap="round" stroke-linejoin="round"/>
</svg>
