<svg width="56" height="106" viewBox="0 0 56 106" fill="none" xmlns="http://www.w3.org/2000/svg">
<path d="M22.0583 1.5C21.6581 1.5 21.2745 1.6599 20.9928 1.94415C20.7112 2.22839 20.5547 2.61341 20.5584 3.01356L20.7692 26.3323C16.4138 26.5601 12.9836 27.7721 10.3022 29.5614C7.32701 31.5468 5.3624 34.1831 4.06841 36.7736C2.77735 39.3582 2.13929 41.9247 1.82166 43.8323C1.66225 44.7896 1.58197 45.5907 1.54147 46.1583C1.5212 46.4424 1.51083 46.6687 1.50554 46.8278C1.50289 46.9073 1.50151 46.9701 1.50078 47.0149L1.50012 47.0686L1.50002 47.085L1.5 47.0906L1.5 47.0928C1.5 47.0936 1.5 47.0944 3 47.0944H1.5L1.50007 47.109L2.04195 103.015C2.04993 103.837 2.71913 104.5 3.54188 104.5H52.7896C53.6158 104.5 54.2865 103.832 54.2896 103.006L54.5 47.1001V47.0944H53C54.5 47.0944 54.5 47.0937 54.5 47.0929L54.5 47.0909L54.5 47.0855L54.4999 47.0695L54.4993 47.0169C54.4986 46.9727 54.4974 46.9106 54.495 46.8318C54.4902 46.6742 54.4807 46.4494 54.4622 46.167C54.4252 45.6026 54.3518 44.8052 54.206 43.8518C53.9155 41.9527 53.3317 39.3954 52.1492 36.8183C50.9654 34.2385 49.1606 31.5945 46.4089 29.5956C43.942 27.8035 40.7854 26.5825 36.787 26.3384V3C36.787 2.17157 36.1154 1.5 35.287 1.5H35.0628H22.2825H22.0583Z" fill="#D5B881" stroke="#667085" stroke-width="3" stroke-linecap="round" stroke-linejoin="round"/>
</svg>
