<svg width="56" height="106" viewBox="0 0 56 106" fill="none" xmlns="http://www.w3.org/2000/svg">
<path d="M22.0583 1.5C21.6579 1.5 21.2741 1.66008 20.9924 1.94459C20.7107 2.2291 20.5544 2.61444 20.5584 3.01481L20.768 24.2407C11.5915 24.6483 6.67187 28.7594 4.12091 33.051C2.80591 35.2632 2.15453 37.463 1.82989 39.1014C1.66703 39.9234 1.58472 40.6126 1.54304 41.1034C1.52218 41.3491 1.51142 41.5459 1.50588 41.6857C1.50311 41.7557 1.50164 41.8114 1.50086 41.852L1.50014 41.9014L1.50003 41.9173L1.50001 41.9231L1.5 41.9254C1.5 41.9264 1.5 41.9273 3 41.9273H1.5C1.5 41.9417 1.50021 41.9562 1.50063 41.9706C1.9412 57.2275 2.30475 68.7179 2.96346 77.3491C3.6192 85.9414 4.57672 91.8859 6.2923 95.9493C7.16229 98.01 8.24711 99.6385 9.62781 100.891C11.0125 102.146 12.6244 102.959 14.4544 103.487C17.9684 104.5 22.4901 104.5 28.0489 104.5H28.2712H28.4948C34.0525 104.5 38.5746 104.5 42.0806 103.487C43.9071 102.959 45.5142 102.145 46.8905 100.886C48.2628 99.632 49.3345 98.0009 50.1867 95.9389C51.867 91.8735 52.7717 85.9277 53.3511 77.3359C53.9332 68.7046 54.1946 57.2141 54.4997 41.9573L54.5 41.9273H53C54.5 41.9273 54.5 41.9264 54.5 41.9255L54.5 41.9233L54.5 41.9179L54.4999 41.9025L54.4992 41.8544C54.4985 41.8146 54.4972 41.7597 54.4947 41.6906C54.4897 41.5525 54.4799 41.3575 54.4609 41.1137C54.4229 40.6267 54.3478 39.9418 54.199 39.1244C53.9026 37.496 53.3072 35.3051 52.1024 33.0986C50.893 30.8837 49.063 28.6429 46.3089 26.9616C43.8546 25.4634 40.7332 24.4504 36.787 24.2458V3C36.787 2.17157 36.1154 1.5 35.287 1.5H35.0628H22.2825H22.0583Z" fill="#EB5600" stroke="#667085" stroke-width="3" stroke-linecap="round" stroke-linejoin="round"/>
</svg>
