<svg width="56" height="106" viewBox="0 0 56 106" fill="none" xmlns="http://www.w3.org/2000/svg">
<path d="M36.7869 3C36.7869 2.17157 36.1153 1.5 35.2869 1.5H35.0627H22.2825H22.0582C21.2298 1.5 20.5582 2.17157 20.5582 3L20.5582 16.5048C15.6304 17.1993 12.1055 21.2971 9.59728 26.4422C6.80926 32.1612 5.00169 39.6934 3.81702 47.0995C2.62837 54.5304 2.05001 61.9473 1.76818 67.4973C1.62714 70.2747 1.56009 72.5901 1.52831 74.213C1.51241 75.0245 1.50533 75.6631 1.50222 76.1001C1.50067 76.3186 1.50011 76.4867 1.49994 76.6009L1.49991 76.7311L1.49997 76.765L1.49999 76.774L1.5 76.7765C1.5 76.7772 1.5 76.7777 2.99999 76.7719L1.5 76.7777L1.50031 76.8029L2.04219 103.031C2.05906 103.847 2.72552 104.5 3.54187 104.5H52.7895C53.6132 104.5 54.2828 103.836 54.2894 103.012L54.4999 76.784V76.7719H52.9999C54.4999 76.7719 54.4999 76.7715 54.4999 76.7708V76.7684L54.4999 76.7594L54.4998 76.7257L54.4993 76.5958C54.4988 76.4819 54.4977 76.314 54.4955 76.0957C54.4911 75.6592 54.4824 75.0211 54.4649 74.2101C54.4301 72.5883 54.3604 70.2742 54.2212 67.4982C53.943 61.9508 53.3861 54.5385 52.2691 47.1132C51.1557 39.7122 49.4709 32.1911 46.8944 26.4824C44.6098 21.4201 41.3756 17.2679 36.7869 16.5207V3Z" fill="#00CEDB" stroke="#667085" stroke-width="3" stroke-linecap="round" stroke-linejoin="round"/>
</svg>
