<svg width="56" height="106" viewBox="0 0 56 106" fill="none" xmlns="http://www.w3.org/2000/svg">
<path d="M22.0583 1.5C21.6566 1.5 21.2716 1.66115 20.9897 1.94735C20.7078 2.23355 20.5524 2.62088 20.5585 3.02257L20.7731 17.2893L1.93883 36.1418C1.65481 36.4261 1.49674 36.8124 1.50005 37.2143L2.04193 103.012C2.04871 103.836 2.71827 104.5 3.54188 104.5H52.7896C53.6161 104.5 54.2869 103.831 54.2896 103.005L54.5 37.2067C54.5012 36.8295 54.3602 36.4657 54.1052 36.1877L36.787 17.3169V3C36.787 2.17157 36.1154 1.5 35.287 1.5H35.0628H22.2825H22.0583Z" fill="#BA7521" stroke="#667085" stroke-width="3" stroke-linecap="round" stroke-linejoin="round"/>
</svg>
