<svg width="38" height="106" viewBox="0 0 38 106" fill="none" xmlns="http://www.w3.org/2000/svg">
<path d="M16.0637 1.5C15.6642 1.5 15.2812 1.65939 14.9996 1.94283C14.718 2.22627 14.5611 2.61033 14.5637 3.00986L14.7787 35.7335C8.82971 35.9808 5.455 37.6934 3.57114 39.6857C2.56376 40.7511 2.04312 41.8365 1.77701 42.6808C1.64456 43.101 1.57549 43.4601 1.53945 43.7269C1.52141 43.8605 1.51156 43.9716 1.50622 44.0564C1.50354 44.0988 1.50199 44.1348 1.5011 44.1638C1.50066 44.1783 1.50038 44.1911 1.50022 44.202L1.50005 44.2172L1.50001 44.2238L1.5 44.2268C1.5 44.2282 1.5 44.2297 3 44.2297H1.5V103C1.5 103.828 2.17157 104.5 3 104.5H23.2548H35C35.8284 104.5 36.5 103.828 36.5 103V44.2297H35C36.5 44.2297 36.5 44.2284 36.5 44.2271L36.5 44.2244L36.5 44.2185L36.4998 44.2047L36.4991 44.1692C36.4984 44.142 36.4971 44.108 36.4948 44.0675C36.4903 43.9866 36.482 43.8797 36.4666 43.7503C36.4358 43.4922 36.3766 43.1419 36.2622 42.7301C36.0332 41.9059 35.5802 40.8264 34.6877 39.7558C33.0157 37.7501 30.0154 36.0189 24.7846 35.7416V3C24.7846 2.17157 24.1131 1.5 23.2846 1.5H23.0599H16.2884H16.0637Z" fill="#C3BD88" stroke="#667085" stroke-width="3" stroke-linecap="round" stroke-linejoin="round"/>
</svg>
