<svg width="55" height="128" viewBox="0 0 55 128" fill="none" xmlns="http://www.w3.org/2000/svg">
<path d="M2 2H53.0466V32.6481C48.1851 69.2745 48.1851 89.8094 48.1851 126.436H6.86158C6.86158 89.8094 6.86158 69.2745 2 32.6481V2Z" fill="#FABB00"/>
<path d="M2 2H53.0466V32.6481H2V2Z" fill="#BCBEC2"/>
<path d="M53.0466 2H54.5466C54.5466 1.17157 53.8751 0.5 53.0466 0.5V2ZM2 2V0.5C1.17157 0.5 0.5 1.17157 0.5 2L2 2ZM48.1851 126.436V127.936C49.0135 127.936 49.6851 127.264 49.6851 126.436H48.1851ZM6.86158 126.436H5.36158C5.36158 127.264 6.03316 127.936 6.86158 127.936V126.436ZM2 32.6481H0.5C0.5 32.7141 0.504357 32.78 0.513042 32.8455L2 32.6481ZM53.0466 32.6481L54.5336 32.8455C54.5423 32.78 54.5466 32.7141 54.5466 32.6481H53.0466ZM53.0466 0.5H2V3.5H53.0466V0.5ZM48.1851 124.936H6.86158V127.936H48.1851V124.936ZM0.5 2V32.6481H3.5V2H0.5ZM0.513042 32.8455C5.36085 69.368 5.36158 89.82 5.36158 126.436H8.36158C8.36158 89.7988 8.36232 69.1809 3.48696 32.4507L0.513042 32.8455ZM51.5466 2V32.6481H54.5466V2H51.5466ZM51.5597 32.4507C46.6843 69.1809 46.6851 89.7988 46.6851 126.436H49.6851C49.6851 89.82 49.6858 69.368 54.5336 32.8455L51.5597 32.4507ZM53.0466 31.1481H2V34.1481H53.0466V31.1481Z" fill="#667085"/>
</svg>
