<svg width="58" height="131" viewBox="0 0 58 131" fill="none" xmlns="http://www.w3.org/2000/svg">
<path d="M37.9444 3.55072V2.05072H36.4444H36.2182H23.3257H23.0996H21.5882L21.5996 3.56206L21.8147 32.0204C17.3865 32.2707 13.9049 33.6221 11.1937 35.6084C8.1979 37.8033 6.23139 40.7074 4.94011 43.5456C3.64991 46.3813 3.01227 49.1971 2.69485 51.2901C2.53557 52.3404 2.45546 53.2185 2.41511 53.8393C2.39492 54.15 2.38464 54.3969 2.3794 54.5696C2.37678 54.656 2.37542 54.7238 2.37472 54.7718L2.37408 54.8288L2.37398 54.8459L2.37397 54.8515L2.37396 54.8536C2.37396 54.8544 2.37396 54.8552 3.87396 54.8552H2.37396V127.987V129.487H3.87396H30.3374H54.3129H55.8129V127.987V54.8552H54.3129C55.8129 54.8552 55.8129 54.8545 55.8129 54.8537L55.8129 54.8517L55.8129 54.8463L55.8128 54.8297L55.8122 54.7736C55.8116 54.7262 55.8103 54.659 55.808 54.5733C55.8032 54.402 55.7938 54.1564 55.7753 53.8472C55.7384 53.2293 55.6652 52.3546 55.5194 51.3081C55.2288 49.2227 54.6451 46.416 53.4633 43.5883C52.2821 40.7619 50.477 37.8527 47.7099 35.6458C45.2181 33.6584 42.0138 32.2958 37.9444 32.027V3.55072Z" fill="#7E622A" stroke="#667085" stroke-width="3" stroke-linecap="round"/>
</svg>
