<svg width="127" height="193" viewBox="0 0 127 193" fill="none" xmlns="http://www.w3.org/2000/svg">
<path d="M34.2726 96.2291C34.2726 96.306 34.2784 96.3815 34.2896 96.4553L40.7368 144.035C40.8376 144.779 41.4727 145.334 42.2233 145.334H63.8632H82.8622C83.6128 145.334 84.2478 144.779 84.3486 144.035L90.7959 96.4553C90.807 96.3815 90.8128 96.306 90.8128 96.2291V66.2062H89.3128C90.8128 66.2062 90.8128 66.2056 90.8128 66.2049L90.8128 66.2029L90.8128 66.197L90.8127 66.1772L90.8121 66.1062C90.8119 66.0818 90.8115 66.0531 90.811 66.0201C90.8103 65.9707 90.8093 65.9118 90.8078 65.8438C90.8029 65.6171 90.7933 65.289 90.7742 64.874C90.7359 64.0444 90.6597 62.8653 90.5078 61.4527C90.2048 58.6349 89.5967 54.8518 88.3694 51.0476C86.0628 43.8976 81.3447 36.1107 71.8457 35.3678V11.7473C71.8457 10.9189 71.1741 10.2473 70.3457 10.2473H70.1056H56.4204H56.1803C55.78 10.2473 55.3963 10.4073 55.1146 10.6917C54.8329 10.9762 54.6766 11.3614 54.6804 11.7617L54.9065 35.3608C50.0827 35.689 46.3283 37.5842 43.4508 40.3153C40.3136 43.2928 38.2741 47.2076 36.9384 51.0111C35.5993 54.8238 34.936 58.6151 34.6054 61.4386C34.4397 62.8543 34.3566 64.036 34.3149 64.8679C34.294 65.284 34.2834 65.6132 34.2781 65.8409C34.2754 65.9548 34.2741 66.0434 34.2734 66.1049L34.2727 66.1765L34.2727 66.1967L34.2726 66.2028L34.2726 66.2048C34.2726 66.2056 34.2726 66.2062 35.7726 66.2062H34.2726V96.2291Z" fill="#4DDB00" stroke="#667085" stroke-width="3" stroke-linecap="round" stroke-linejoin="round"/>
</svg>
