<svg width="61" height="139" viewBox="0 0 61 139" fill="none" xmlns="http://www.w3.org/2000/svg">
<path d="M2.27264 88.2291C2.27264 88.306 2.27843 88.3815 2.28958 88.4553L8.73685 136.035C8.83763 136.779 9.47268 137.334 10.2233 137.334H31.8632H50.8622C51.6128 137.334 52.2478 136.779 52.3486 136.035L58.7959 88.4553C58.807 88.3815 58.8128 88.306 58.8128 88.2291V58.2062H57.3128C58.8128 58.2062 58.8128 58.2056 58.8128 58.2049L58.8128 58.2029L58.8128 58.197L58.8127 58.1772L58.8121 58.1062C58.8119 58.0818 58.8115 58.0531 58.811 58.0201C58.8103 57.9707 58.8093 57.9118 58.8078 57.8438C58.8029 57.6171 58.7933 57.289 58.7742 56.874C58.7359 56.0444 58.6597 54.8653 58.5078 53.4527C58.2048 50.6349 57.5967 46.8518 56.3694 43.0476C54.0628 35.8976 49.3447 28.1107 39.8457 27.3678V3.74731C39.8457 2.91889 39.1741 2.24731 38.3457 2.24731H38.1056H24.4204H24.1803C23.78 2.24731 23.3963 2.40733 23.1146 2.69175C22.8329 2.97616 22.6766 3.36139 22.6804 3.76168L22.9065 27.3608C18.0827 27.689 14.3283 29.5842 11.4508 32.3153C8.31365 35.2928 6.27413 39.2076 4.93836 43.0111C3.59935 46.8238 2.93598 50.6151 2.60544 53.4386C2.43972 54.8543 2.35659 56.036 2.31486 56.8679C2.29398 57.284 2.28343 57.6132 2.2781 57.8409C2.27543 57.9548 2.27407 58.0434 2.27337 58.1049L2.27275 58.1765L2.27266 58.1967L2.27265 58.2028L2.27264 58.2048C2.27264 58.2056 2.27264 58.2062 3.77264 58.2062H2.27264V88.2291Z" fill="#4DDB00" stroke="#667085" stroke-width="3" stroke-linecap="round" stroke-linejoin="round"/>
</svg>
