<svg width="61" height="139" viewBox="0 0 61 139" fill="none" xmlns="http://www.w3.org/2000/svg">
<path d="M39.8271 3.74731V2.24731H38.3271H38.087H24.4018H24.1617H22.6504L22.6618 3.75865L22.8907 34.0546C18.165 34.3065 14.4587 35.7402 11.5783 37.8505C8.41436 40.1685 6.33573 43.237 4.9697 46.2394C3.60476 49.2395 2.92974 52.2196 2.59364 54.4358C2.42501 55.5477 2.34023 56.4771 2.29754 57.1339C2.27619 57.4625 2.26532 57.7236 2.25979 57.9059C2.25702 57.997 2.25559 58.0686 2.25485 58.1191L2.25418 58.1789L2.25408 58.1967L2.25406 58.2025L2.25406 58.2046C2.25406 58.2054 2.25406 58.2062 3.75406 58.2062H2.25406V135.834V137.334H3.75406H31.8446H57.2942H58.7942V135.834V58.2062H57.2942C58.7942 58.2062 58.7942 58.2055 58.7942 58.2047L58.7942 58.2027L58.7942 58.1971L58.7941 58.1798L58.7935 58.1209C58.7928 58.071 58.7915 58.0001 58.789 57.9096C58.7839 57.7286 58.774 57.4689 58.7545 57.1418C58.7155 56.4879 58.6379 55.5619 58.4835 54.4537C58.1758 52.2451 57.5578 49.2741 56.3073 46.2822C55.0574 43.2915 53.1493 40.2179 50.2277 37.8878C47.5805 35.7764 44.1696 34.3314 39.8271 34.061V3.74731Z" fill="#D5B881" stroke="#667085" stroke-width="3" stroke-linecap="round"/>
</svg>
