<svg width="60" height="147" viewBox="0 0 60 147" fill="none" xmlns="http://www.w3.org/2000/svg">
<path d="M39.1994 3.74731C39.1994 2.91889 38.5278 2.24731 37.6994 2.24731H37.4593H23.7742H23.5341C23.1343 2.24731 22.751 2.40691 22.4694 2.69067C22.1878 2.97443 22.0311 3.35887 22.0341 3.75865L22.2631 34.0546C17.5374 34.3065 13.8311 35.7402 10.9507 37.8505C7.7867 40.1685 5.70807 43.2369 4.34204 46.2394C2.9771 49.2395 2.30209 52.2196 1.96598 54.4358C1.79736 55.5477 1.71258 56.4771 1.66989 57.1339C1.64853 57.4625 1.63766 57.7236 1.63213 57.9059C1.62937 57.997 1.62794 58.0686 1.6272 58.1191L1.62652 58.1789L1.62642 58.1967L1.62641 58.2025L1.6264 58.2046C1.6264 58.2054 1.6264 58.2062 3.1264 58.2062H1.6264C1.6264 58.2172 1.62653 58.2283 1.62677 58.2393C2.0987 79.5907 2.48762 95.6408 3.19138 107.689C3.89317 119.703 4.91351 127.886 6.70421 133.427C8.52641 139.066 11.2194 142.175 15.308 143.715C19.1088 145.147 23.9934 145.147 29.9174 145.146H30.1869H30.4581C36.3807 145.147 41.2657 145.147 45.0579 143.714C49.141 142.172 51.8153 139.059 53.5998 133.419C55.3531 127.876 56.3178 119.693 56.9379 107.679C57.5598 95.6306 57.8396 79.5805 58.1664 58.2291L58.1665 58.2062H56.6665C58.1665 58.2062 58.1665 58.2055 58.1665 58.2047L58.1665 58.2027L58.1665 58.1971L58.1664 58.1798L58.1658 58.1209C58.1651 58.071 58.1638 58.0001 58.1613 57.9096C58.1563 57.7286 58.1464 57.4689 58.1268 57.1418C58.0878 56.4879 58.0102 55.5619 57.8558 54.4537C57.5481 52.2451 56.9301 49.2741 55.6796 46.2822C54.4297 43.2915 52.5216 40.2179 49.6001 37.8878C46.9528 35.7764 43.542 34.3314 39.1994 34.061V3.74731Z" fill="#EB5600" stroke="#667085" stroke-width="3" stroke-linecap="round" stroke-linejoin="round"/>
</svg>
