<svg width="39" height="131" viewBox="0 0 39 131" fill="none" xmlns="http://www.w3.org/2000/svg">
<path d="M25.0209 3.49603C25.0209 2.66761 24.3493 1.99603 23.5209 1.99603H23.2947H16.4792H16.2531C15.8538 1.99603 15.4711 2.15516 15.1896 2.43819C14.908 2.72123 14.751 3.1048 14.7531 3.504L14.9714 44.5939C8.88049 44.9014 5.45332 47.0743 3.58481 49.5173C2.60121 50.8034 2.10771 52.0917 1.8599 53.0637C1.73584 53.5503 1.67218 53.9621 1.63943 54.2619C1.62302 54.412 1.61429 54.5348 1.60964 54.6259C1.60732 54.6715 1.60602 54.7091 1.6053 54.7384L1.60459 54.7759L1.60446 54.7899L1.60444 54.7956L1.60443 54.7981C1.60443 54.7993 1.60443 54.8005 3.10443 54.8005H1.60443V127.932C1.60443 128.76 2.276 129.432 3.10443 129.432H23.4909H35.3124C36.1409 129.432 36.8124 128.76 36.8124 127.932V54.8005H35.3124C36.8124 54.8005 36.8124 54.7995 36.8124 54.7984L36.8124 54.7961L36.8124 54.7909L36.8123 54.7781L36.8117 54.7428C36.8111 54.715 36.81 54.6789 36.808 54.6349C36.8041 54.5471 36.7966 54.4276 36.7825 54.2809C36.7543 53.9882 36.6993 53.5841 36.5917 53.1053C36.3773 52.1514 35.9478 50.8737 35.0822 49.59C33.4398 47.1542 30.401 44.9492 25.0209 44.6036V3.49603ZM35.3124 127.932V126.432H3.10443V127.932H4.60443H23.4909H33.8124H35.3124Z" fill="#A80051" stroke="#667085" stroke-width="3" stroke-linecap="round" stroke-linejoin="round"/>
</svg>
