<svg width="40" height="131" viewBox="0 0 40 131" fill="none" xmlns="http://www.w3.org/2000/svg">
<path d="M25.7979 3.48999C25.7979 2.66156 25.1263 1.98999 24.2979 1.98999H24.0717H17.2562H17.03C16.6308 1.98999 16.2481 2.14912 15.9665 2.43215C15.685 2.71518 15.5279 3.09876 15.53 3.49796L15.7484 44.5878C9.65744 44.8953 6.23026 47.0682 4.36176 49.5113C3.37816 50.7973 2.88466 52.0856 2.63685 53.0577C2.51279 53.5443 2.44913 53.956 2.41637 54.2558C2.39997 54.4059 2.39123 54.5288 2.38659 54.6199C2.38427 54.6654 2.38296 54.7031 2.38224 54.7324L2.38154 54.7699L2.38141 54.7838L2.38139 54.7895L2.38138 54.7921C2.38138 54.7933 2.38138 54.7944 3.88138 54.7944H2.38138V127.926C2.38138 128.754 3.05295 129.426 3.88138 129.426H24.2679H36.0894C36.9178 129.426 37.5894 128.754 37.5894 127.926V54.7944H36.0894C37.5894 54.7944 37.5894 54.7934 37.5894 54.7924L37.5894 54.7901L37.5894 54.7849L37.5892 54.772L37.5887 54.7367C37.5881 54.709 37.587 54.6728 37.585 54.6289C37.581 54.541 37.5736 54.4215 37.5594 54.2749C37.5312 53.9822 37.4762 53.5781 37.3686 53.0993C37.1542 52.1453 36.7247 50.8677 35.8591 49.584C34.2167 47.1482 31.1779 44.9431 25.7979 44.5976V3.48999ZM36.0894 127.926V126.426H3.88138V127.926H5.38138H24.2679H34.5894H36.0894Z" fill="#C3BD88" stroke="#667085" stroke-width="3" stroke-linecap="round" stroke-linejoin="round"/>
</svg>
