<svg width="127" height="193" viewBox="0 0 127 193" fill="none" xmlns="http://www.w3.org/2000/svg">
<rect x="0.102417" width="126.156" height="193" fill="#404754"/>
<path d="M34.2726 96.2291C34.2726 96.306 34.2784 96.3815 34.2896 96.4553L40.7368 144.035C40.8376 144.779 41.4727 145.334 42.2233 145.334H63.8632H82.8622C83.6128 145.334 84.2478 144.779 84.3486 144.035L90.7959 96.4553C90.807 96.3815 90.8128 96.306 90.8128 96.2291V66.2062H89.3128C90.8128 66.2062 90.8128 66.2056 90.8128 66.2049L90.8128 66.2029L90.8128 66.197L90.8127 66.1772L90.8121 66.1062C90.8119 66.0818 90.8115 66.0531 90.811 66.0201C90.8103 65.9707 90.8093 65.9118 90.8078 65.8438C90.8029 65.6171 90.7933 65.289 90.7742 64.874C90.7359 64.0444 90.6597 62.8653 90.5078 61.4527C90.2048 58.6349 89.5967 54.8518 88.3694 51.0476C86.0628 43.8976 81.3447 36.1107 71.8457 35.3678V11.7473C71.8457 10.9189 71.1741 10.2473 70.3457 10.2473H70.1056H56.4204H56.1803C55.78 10.2473 55.3963 10.4073 55.1146 10.6917C54.8329 10.9762 54.6766 11.3614 54.6804 11.7617L54.9065 35.3608C50.0827 35.689 46.3283 37.5842 43.4508 40.3153C40.3136 43.2928 38.2741 47.2076 36.9384 51.0111C35.5993 54.8238 34.936 58.6151 34.6054 61.4386C34.4397 62.8543 34.3566 64.036 34.3149 64.8679C34.294 65.284 34.2834 65.6132 34.2781 65.8409C34.2754 65.9548 34.2741 66.0434 34.2734 66.1049L34.2727 66.1765L34.2727 66.1967L34.2726 66.2028L34.2726 66.2048C34.2726 66.2056 34.2726 66.2062 35.7726 66.2062H34.2726V96.2291Z" fill="#4DDB00" stroke="#667085" stroke-width="3" stroke-linecap="round" stroke-linejoin="round"/>
<path d="M56.4252 164.092H59.8237V168.534C59.2729 168.713 58.7534 168.838 58.2651 168.909C57.7807 168.983 57.2846 169.02 56.7768 169.02C55.4838 169.02 54.4956 168.641 53.812 167.883C53.1323 167.122 52.7924 166.03 52.7924 164.608C52.7924 163.225 53.187 162.147 53.976 161.374C54.769 160.6 55.8666 160.213 57.269 160.213C58.1479 160.213 58.9956 160.389 59.812 160.741L59.2084 162.194C58.5834 161.881 57.9331 161.725 57.2573 161.725C56.4721 161.725 55.8432 161.989 55.3706 162.516C54.8979 163.043 54.6616 163.752 54.6616 164.643C54.6616 165.573 54.851 166.284 55.2299 166.776C55.6127 167.264 56.1674 167.508 56.894 167.508C57.2729 167.508 57.6577 167.469 58.0483 167.391V165.604H56.4252V164.092ZM61.6518 160.659C61.6518 160.077 61.976 159.786 62.6245 159.786C63.2729 159.786 63.5971 160.077 63.5971 160.659C63.5971 160.936 63.5151 161.153 63.351 161.309C63.1909 161.461 62.9487 161.538 62.6245 161.538C61.976 161.538 61.6518 161.245 61.6518 160.659ZM63.5151 168.903H61.728V162.352H63.5151V168.903ZM71.4428 168.903H69.6557V165.077C69.6557 164.604 69.5717 164.25 69.4038 164.016C69.2358 163.778 68.9682 163.659 68.601 163.659C68.101 163.659 67.7397 163.827 67.517 164.163C67.2944 164.495 67.1831 165.047 67.1831 165.821V168.903H65.3959V162.352H66.7612L67.0014 163.19H67.101C67.3002 162.874 67.5737 162.635 67.9213 162.475C68.2729 162.311 68.6713 162.229 69.1166 162.229C69.8784 162.229 70.4565 162.436 70.851 162.85C71.2456 163.26 71.4428 163.854 71.4428 164.631V168.903Z" fill="white"/>
</svg>
