<svg width="61" height="139" viewBox="0 0 61 139" fill="none" xmlns="http://www.w3.org/2000/svg">
<path d="M39.8013 3.74731C39.8013 2.91889 39.1298 2.24731 38.3013 2.24731H38.0613H24.3761H24.136C23.7357 2.24731 23.352 2.40733 23.0703 2.69175C22.7886 2.97616 22.6322 3.36139 22.6361 3.76168L22.8624 27.3912C17.7563 27.9464 13.9521 31.2991 11.1674 35.7506C8.12527 40.6138 6.14506 47.0048 4.84089 53.2593C3.53168 59.5379 2.87993 65.7998 2.55456 70.4808C2.39168 72.8243 2.31015 74.7783 2.26933 76.1488C2.24891 76.8342 2.23866 77.374 2.23352 77.744C2.23095 77.929 2.22965 78.0716 2.229 78.1688L2.22842 78.2801L2.22834 78.3094L2.22833 78.3174L2.22833 78.3197C2.22833 78.3204 2.22833 78.3209 3.72833 78.3209H2.22833C2.22833 78.3433 2.22884 78.3657 2.22984 78.3881L4.81009 135.901C4.84604 136.703 5.5063 137.334 6.30858 137.334H54.0432C54.839 137.334 55.4963 136.713 55.5408 135.918L58.7661 78.4049C58.7668 78.3929 58.7673 78.3808 58.7677 78.3688C58.7682 78.3528 58.7685 78.3369 58.7685 78.3209H57.2685C58.7685 78.3209 58.7685 78.3204 58.7685 78.3198V78.3175L58.7685 78.3096L58.7684 78.2805L58.7679 78.1696C58.7673 78.0727 58.7661 77.9304 58.7637 77.7457C58.759 77.3763 58.7496 76.8372 58.7309 76.1525C58.6934 74.7833 58.6186 72.8309 58.4691 70.4893C58.1704 65.8115 57.5722 59.5553 56.3708 53.2833C55.1742 47.036 53.3579 40.6551 50.5673 35.7988C48.0387 31.3985 44.5473 27.9972 39.8013 27.4025V3.74731Z" fill="#00CEDB" stroke="#667085" stroke-width="3" stroke-linecap="round" stroke-linejoin="round"/>
</svg>
